<?xml version="1.0" encoding="utf-8"?>
<!-- Generator: Adobe Illustrator 26.3.1, SVG Export Plug-In . SVG Version: 6.00 Build 0)  -->
<svg viewBox="0 0 266 338">
<style type="text/css">
	.st0{fill:none;stroke:#000000;stroke-width:26;stroke-linecap:round;stroke-linejoin:round;stroke-miterlimit:10;}
</style>
<path class="st0" d="M229.1,75H189V35.7c0-10.9-8.8-19.7-19.7-19.7H35.7C24.8,16,16,24.8,16,35.7v212.5c0,10.9,8.8,19.7,19.7,19.7
	h40.1v34.8c0,10.9,8.8,19.7,19.7,19.7h133.5c10.9,0,19.7-8.8,19.7-19.7V94.7C248.9,83.8,240,75,229.1,75z"/>
<path class="st0" d="M229.1,322.5H95.6c-10.9,0-19.7-8.8-19.7-19.7V94.7c0-10.9,8.8-19.7,19.7-19.7h133.5
		c10.9,0,19.7,8.8,19.7,19.7v208.1C248.9,313.7,240,322.5,229.1,322.5z"/>
</svg>
