<?xml version="1.0" encoding="utf-8"?>
<!-- Generator: Adobe Illustrator 26.3.1, SVG Export Plug-In . SVG Version: 6.00 Build 0)  -->
<svg  viewBox="0 0 595 756">
<style type="text/css">
	.st0{fill:none;stroke:#000000;stroke-width:51;stroke-miterlimit:10;}
	.st1{fill:none;stroke:#000000;stroke-width:51;stroke-linecap:round;stroke-linejoin:round;stroke-miterlimit:10;}
</style>
	<path class="st0" d="M518.5,121.8H79.3c-28,0-50.7,24.1-50.7,53.9v0c0,29.8,22.7,53.9,50.7,53.9h6.4c3,0,5.5,2.6,5.5,5.8v428.5
		c0,32.2,24.5,58.2,54.7,58.2h306c30.2,0,54.7-26.1,54.7-58.2V235.5c0-3.2,2.4-5.8,5.5-5.8h6.4c28,0,50.7-24.1,50.7-53.9v0
		C569.2,145.9,546.5,121.8,518.5,121.8z"/>
	<path class="st0" d="M526.1,229.6H71.7c-23.8,0-43.1-19.3-43.1-43.1v-21.7c0-23.8,19.3-43.1,43.1-43.1h454.4
		c23.8,0,43.1,19.3,43.1,43.1v21.7C569.2,210.4,549.9,229.6,526.1,229.6z"/>
	<path class="st0" d="M366.9,121.8H233.3c-8.7,0-15.8-7.1-15.8-15.8V44.5c0-8.7,7.1-15.8,15.8-15.8h133.5c8.7,0,15.8,7.1,15.8,15.8
		V106C382.7,114.7,375.6,121.8,366.9,121.8z"/>
	<line class="st1" x1="298.9" y1="356" x2="298.9" y2="635.4"/>
	<line class="st1" x1="401.7" y1="356" x2="401.7" y2="635.4"/>
	<line class="st1" x1="193.5" y1="356" x2="193.5" y2="635.4"/>
</svg>
