<?xml version="1.0" encoding="utf-8"?>
<!-- Generator: Adobe Illustrator 26.3.1, SVG Export Plug-In . SVG Version: 6.00 Build 0)  -->
<svg viewBox="0 0 581.6 565.2">
<style type="text/css">
	.et0{fill:none;stroke:#000000;stroke-width:64;stroke-linecap:round;stroke-miterlimit:10;}
	.et1{fill:none;stroke:#000000;stroke-width:57;stroke-linecap:round;stroke-miterlimit:10;}
</style>
<path class="et0" d="M300.7,36.8H147.1C86,36.8,36.4,86.5,36.4,147.6v269.7c0,61.5,49.9,111.4,111.4,111.4h269
	c61.5,0,111.4-49.9,111.4-111.4V306"/>
<path class="et1" d="M537.2,66.5l-22-22c-16.6-16.6-43.5-16.6-60.1,0L267.8,231.8c-4.6,4.6-7.9,10-10,15.7
	c-2.2,2.8-5.3,11.5-6.3,15.3l-12.8,47.9c-5.4,20.3,13.1,38.8,33.4,33.4l53.1-14.2c4.8-1.3,8.9-3.7,12.2-6.8c0.6-0.5,1.2-1,1.9-1.3
	c3.8-2,7.4-4.5,10.6-7.8l187.3-187.3C553.8,110,553.8,83.1,537.2,66.5z"/>
</svg>
