<?xml version="1.0" encoding="utf-8"?>
<!-- Generator: Adobe Illustrator 26.3.1, SVG Export Plug-In . SVG Version: 6.00 Build 0)  -->
<svg viewBox="0 0 197.2 245.3">
<style type="text/css">
	.st0{fill:none;stroke:#000000;stroke-width:21;stroke-linecap:round;stroke-linejoin:round;stroke-miterlimit:10;}
	.st1 {fill: #000000;}	
</style>
	<path class="st0" d="M151.6,33.7h-18.1v-2.2c0-10.8-8.7-19.5-19.5-19.5H81.7C71,12,62.3,20.7,62.3,31.4v2.2H45.9
		C27.8,33.7,13,48.4,13,66.5v133.2c0,18.2,14.7,32.9,32.9,32.9h105.7c18.2,0,32.9-14.7,32.9-32.9V66.5
		C184.5,48.4,169.8,33.7,151.6,33.7z"/>
	<path class="st0" d="M114.1,55.3H81.7c-10.8,0-19.5-8.7-19.5-19.5v-4.4C62.3,20.7,71,12,81.7,12h32.3c10.8,0,19.5,8.7,19.5,19.5
		v4.4C133.5,46.6,124.8,55.3,114.1,55.3z"/>
	<circle class="st1" cx="54.5" cy="117.7" r="14.1"/>
	<path class="st1" d="M152.4,131.8h-60c-6.8,0-12.4-5.6-12.4-12.4v-3.3c0-6.8,5.6-12.4,12.4-12.4h60c6.8,0,12.4,5.6,12.4,12.4v3.3
		C164.8,126.2,159.3,131.8,152.4,131.8z"/>
	<circle class="st1" cx="54.5" cy="168.7" r="14.1"/>
	<path class="st1" d="M152.4,182.8h-60c-6.8,0-12.4-5.6-12.4-12.4v-3.3c0-6.8,5.6-12.4,12.4-12.4h60c6.8,0,12.4,5.6,12.4,12.4v3.3
		C164.8,177.2,159.3,182.8,152.4,182.8z"/>
</svg>
