<?xml version="1.0" encoding="utf-8"?>
<!-- Generator: Adobe Illustrator 26.3.1, SVG Export Plug-In . SVG Version: 6.00 Build 0)  -->
<svg version="1.1" id="Шар_1" xmlns="http://www.w3.org/2000/svg" xmlns:xlink="http://www.w3.org/1999/xlink" x="0px" y="0px"
	 viewBox="0 0 230 206" style="enable-background:new 0 0 230 206;" xml:space="preserve">
<g>
	<path d="M226,89.3l-43.6-75.5C177.5,5.2,168.4,0,158.6,0H71.4c-9.8,0-18.9,5.2-23.8,13.7L4,89.3c-4.9,8.5-4.9,19,0,27.5l43.6,75.5
		c4.9,8.5,14,13.7,23.8,13.7h87.2c9.8,0,18.9-5.2,23.8-13.7l43.6-75.5C230.9,108.2,230.9,97.8,226,89.3z M115,145
		c-23.2,0-42-18.8-42-42c0-23.2,18.8-42,42-42s42,18.8,42,42C157,126.2,138.2,145,115,145z"/>
</g>
</svg>
